name rise37.2698peak67.6939fall79.5734.mot
datacolumns 19
datarows 21
range 10.63496700000000 10.66829300000000
endheader
time	ground_force1_vx	ground_force1_vy	ground_force1_vz	ground_force1_px	ground_force1_py	ground_force1_pz	ground_force2_vx	ground_force2_vy	ground_force2_vz	ground_force2_px	ground_force2_py	ground_force2_pz	ground_torque1_x	ground_torque1_y	ground_torque1_z	ground_torque2_x	ground_torque2_y	ground_torque2_z	
10.63496700000000	62.76432000000000	750.63729100000000	56.70087600000000	0.34268000000000	0.00000000000000	0.10854200000000	0.00000000000000	0.00000000000000	0.00000000000000	0.00000000000000	0.00000000000000	0.00000000000000	0.00000000000000	24.56732800000000	0.00000000000000	0.00000000000000	0.00000000000000	0.00000000000000	
10.63662700000000	62.29029400000000	754.81650200000001	57.02877700000000	0.34204000000000	0.00000000000000	0.10851200000000	0.00000000000000	0.00000000000000	0.00000000000000	0.00000000000000	0.00000000000000	0.00000000000000	0.00000000000000	24.76565200000000	0.00000000000000	0.00000000000000	0.00000000000000	0.00000000000000	
10.63829400000000	61.81352800000000	758.88789299999996	57.35555500000000	0.34143000000000	0.00000000000000	0.10848100000000	0.00000000000000	0.00000000000000	0.00000000000000	0.00000000000000	0.00000000000000	0.00000000000000	0.00000000000000	24.96542700000000	0.00000000000000	0.00000000000000	0.00000000000000	0.00000000000000	
10.63995900000000	61.33450900000000	762.84793900000000	57.68057800000000	0.34084600000000	0.00000000000000	0.10844800000000	0.00000000000000	0.00000000000000	0.00000000000000	0.00000000000000	0.00000000000000	0.00000000000000	0.00000000000000	25.16617600000000	0.00000000000000	0.00000000000000	0.00000000000000	0.00000000000000	
10.64162500000000	60.85368200000000	766.69318999999996	58.00314700000000	0.34028800000000	0.00000000000000	0.10841500000000	0.00000000000000	0.00000000000000	0.00000000000000	0.00000000000000	0.00000000000000	0.00000000000000	0.00000000000000	25.36738100000000	0.00000000000000	0.00000000000000	0.00000000000000	0.00000000000000	
10.64329300000000	60.37145100000000	770.42028700000003	58.32251000000000	0.33975300000000	0.00000000000000	0.10838100000000	0.00000000000000	0.00000000000000	0.00000000000000	0.00000000000000	0.00000000000000	0.00000000000000	0.00000000000000	25.56848300000000	0.00000000000000	0.00000000000000	0.00000000000000	0.00000000000000	
10.64497300000000	59.88817900000000	774.02597400000002	58.63786100000000	0.33923900000000	0.00000000000000	0.10834500000000	0.00000000000000	0.00000000000000	0.00000000000000	0.00000000000000	0.00000000000000	0.00000000000000	0.00000000000000	25.76889000000000	0.00000000000000	0.00000000000000	0.00000000000000	0.00000000000000	
10.64662500000000	59.40419500000000	777.50711699999999	58.94834800000000	0.33874500000000	0.00000000000000	0.10830900000000	0.00000000000000	0.00000000000000	0.00000000000000	0.00000000000000	0.00000000000000	0.00000000000000	0.00000000000000	25.96797600000000	0.00000000000000	0.00000000000000	0.00000000000000	0.00000000000000	
10.64829600000000	58.91978900000000	780.86070900000004	59.25308300000000	0.33826800000000	0.00000000000000	0.10827200000000	0.00000000000000	0.00000000000000	0.00000000000000	0.00000000000000	0.00000000000000	0.00000000000000	0.00000000000000	26.16508900000000	0.00000000000000	0.00000000000000	0.00000000000000	0.00000000000000	
10.64998000000000	58.43521800000000	784.08389199999999	59.55114400000000	0.33780600000000	0.00000000000000	0.10823500000000	0.00000000000000	0.00000000000000	0.00000000000000	0.00000000000000	0.00000000000000	0.00000000000000	0.00000000000000	26.35955300000000	0.00000000000000	0.00000000000000	0.00000000000000	0.00000000000000	
10.65162600000000	57.95070800000000	787.17396199999996	59.84158700000000	0.33735700000000	0.00000000000000	0.10819600000000	0.00000000000000	0.00000000000000	0.00000000000000	0.00000000000000	0.00000000000000	0.00000000000000	0.00000000000000	26.55067600000000	0.00000000000000	0.00000000000000	0.00000000000000	0.00000000000000	
10.65329100000000	57.46645600000000	790.12838599999998	60.12344800000000	0.33691900000000	0.00000000000000	0.10815600000000	0.00000000000000	0.00000000000000	0.00000000000000	0.00000000000000	0.00000000000000	0.00000000000000	0.00000000000000	26.73775100000000	0.00000000000000	0.00000000000000	0.00000000000000	0.00000000000000	
10.65497500000000	56.98263100000000	792.94480799999997	60.39575300000000	0.33648900000000	0.00000000000000	0.10811600000000	0.00000000000000	0.00000000000000	0.00000000000000	0.00000000000000	0.00000000000000	0.00000000000000	0.00000000000000	26.92006100000000	0.00000000000000	0.00000000000000	0.00000000000000	0.00000000000000	
10.65663000000000	56.49937600000000	795.62105899999995	60.65752500000000	0.33606600000000	0.00000000000000	0.10807500000000	0.00000000000000	0.00000000000000	0.00000000000000	0.00000000000000	0.00000000000000	0.00000000000000	0.00000000000000	27.09688600000000	0.00000000000000	0.00000000000000	0.00000000000000	0.00000000000000	
10.65829600000000	56.01681000000000	798.15517199999999	60.90778900000000	0.33564600000000	0.00000000000000	0.10803300000000	0.00000000000000	0.00000000000000	0.00000000000000	0.00000000000000	0.00000000000000	0.00000000000000	0.00000000000000	27.26750500000000	0.00000000000000	0.00000000000000	0.00000000000000	0.00000000000000	
10.65997500000000	55.53503300000000	800.54538100000002	61.14558300000000	0.33522900000000	0.00000000000000	0.10799000000000	0.00000000000000	0.00000000000000	0.00000000000000	0.00000000000000	0.00000000000000	0.00000000000000	0.00000000000000	27.43120400000000	0.00000000000000	0.00000000000000	0.00000000000000	0.00000000000000	
10.66162500000000	55.05412200000000	802.79013599999996	61.36995900000000	0.33481000000000	0.00000000000000	0.10794700000000	0.00000000000000	0.00000000000000	0.00000000000000	0.00000000000000	0.00000000000000	0.00000000000000	0.00000000000000	27.58727800000000	0.00000000000000	0.00000000000000	0.00000000000000	0.00000000000000	
10.66329500000000	54.57414200000000	804.88810500000000	61.57999500000000	0.33438900000000	0.00000000000000	0.10790200000000	0.00000000000000	0.00000000000000	0.00000000000000	0.00000000000000	0.00000000000000	0.00000000000000	0.00000000000000	27.73503500000000	0.00000000000000	0.00000000000000	0.00000000000000	0.00000000000000	
10.66496200000000	54.09513700000000	806.83818199999996	61.77479700000000	0.33396400000000	0.00000000000000	0.10785700000000	0.00000000000000	0.00000000000000	0.00000000000000	0.00000000000000	0.00000000000000	0.00000000000000	0.00000000000000	27.87380200000000	0.00000000000000	0.00000000000000	0.00000000000000	0.00000000000000	
10.66663200000000	53.61714100000000	808.63948700000003	61.95350800000000	0.33353100000000	0.00000000000000	0.10781200000000	0.00000000000000	0.00000000000000	0.00000000000000	0.00000000000000	0.00000000000000	0.00000000000000	0.00000000000000	28.00293000000000	0.00000000000000	0.00000000000000	0.00000000000000	0.00000000000000	
10.66829300000000	53.14017500000000	810.29137800000001	62.11531200000000	0.33308900000000	0.00000000000000	0.10776500000000	0.00000000000000	0.00000000000000	0.00000000000000	0.00000000000000	0.00000000000000	0.00000000000000	0.00000000000000	28.12179800000000	0.00000000000000	0.00000000000000	0.00000000000000	0.00000000000000	
